<svg width="512" height="512" viewBox="0 0 512 512" fill="none" xmlns="http://www.w3.org/2000/svg">
  <defs>
    <linearGradient id="bg" x1="64" y1="48" x2="448" y2="464" gradientUnits="userSpaceOnUse">
      <stop stop-color="#1D4ED8"/>
      <stop offset="1" stop-color="#0F172A"/>
    </linearGradient>
    <linearGradient id="badge" x1="328" y1="320" x2="432" y2="432" gradientUnits="userSpaceOnUse">
      <stop stop-color="#34D399"/>
      <stop offset="1" stop-color="#0F766E"/>
    </linearGradient>
    <filter id="shadow" x="104" y="90" width="304" height="332" filterUnits="userSpaceOnUse" color-interpolation-filters="sRGB">
      <feFlood flood-opacity="0" result="BackgroundImageFix"/>
      <feColorMatrix in="SourceAlpha" type="matrix" values="0 0 0 0 0 0 0 0 0 0 0 0 0 0 0 0 0 0 127 0" result="hardAlpha"/>
      <feOffset dy="14"/>
      <feGaussianBlur stdDeviation="18"/>
      <feComposite in2="hardAlpha" operator="out"/>
      <feColorMatrix type="matrix" values="0 0 0 0 0.0588235 0 0 0 0 0.0901961 0 0 0 0 0.164706 0 0 0 0.32 0"/>
      <feBlend mode="normal" in2="BackgroundImageFix" result="effect1_dropShadow_0_1"/>
      <feBlend mode="normal" in="SourceGraphic" in2="effect1_dropShadow_0_1" result="shape"/>
    </filter>
    <pattern id="grid" width="32" height="32" patternUnits="userSpaceOnUse">
      <path d="M32 0H0V32" stroke="white" stroke-opacity="0.08"/>
    </pattern>
  </defs>

  <rect width="512" height="512" rx="112" fill="url(#bg)"/>
  <rect width="512" height="512" rx="112" fill="url(#grid)"/>
  <circle cx="412" cy="110" r="66" fill="white" fill-opacity="0.08"/>
  <circle cx="118" cy="402" r="88" fill="white" fill-opacity="0.05"/>

  <g filter="url(#shadow)">
    <rect x="140" y="116" width="232" height="260" rx="28" fill="#F8FAFC"/>
    <rect x="140" y="116" width="232" height="46" rx="28" fill="#DBEAFE"/>
    <rect x="140" y="134" width="232" height="28" fill="#DBEAFE"/>
  </g>

  <rect x="176" y="186" width="116" height="16" rx="8" fill="#1E3A8A"/>
  <rect x="176" y="220" width="160" height="14" rx="7" fill="#93C5FD"/>
  <rect x="176" y="250" width="136" height="14" rx="7" fill="#93C5FD"/>
  <rect x="176" y="280" width="148" height="14" rx="7" fill="#93C5FD"/>
  <rect x="176" y="314" width="92" height="14" rx="7" fill="#1E40AF"/>

  <path d="M328 352C328 319.967 353.967 294 386 294C418.033 294 444 319.967 444 352C444 384.033 418.033 410 386 410C353.967 410 328 384.033 328 352Z" fill="url(#badge)"/>
  <path d="M361 352L379 370L413 336" stroke="white" stroke-width="18" stroke-linecap="round" stroke-linejoin="round"/>
</svg>
